<svg width="1280" height="1280" xmlns="http://www.w3.org/2000/svg">

<rect x="0" y="0" width="128" height="128" rx="8" fill="#edc25f"/>
<rect x="0" y="128" width="128" height="128" rx="8" fill="#eddfbe"/>
<rect x="0" y="256" width="128" height="128" rx="8" fill="#eddfbe"/>
<rect x="0" y="384" width="128" height="128" rx="8" fill="#edd18e"/>
<rect x="0" y="512" width="128" height="128" rx="8" fill="#eda600"/>
<rect x="0" y="640" width="128" height="128" rx="8" fill="#edd18e"/>
<rect x="0" y="768" width="128" height="128" rx="8" fill="#edb42f"/>
<rect x="0" y="896" width="128" height="128" rx="8" fill="#edc25f"/>
<rect x="0" y="1024" width="128" height="128" rx="8" fill="#eddfbe"/>
<rect x="0" y="1152" width="128" height="128" rx="8" fill="#eedcb3"/>
<rect x="128" y="0" width="128" height="128" rx="8" fill="#eddfbe"/>
<rect x="128" y="128" width="128" height="128" rx="8" fill="#edd18e"/>
<rect x="128" y="256" width="128" height="128" rx="8" fill="#edd18e"/>
<rect x="128" y="384" width="128" height="128" rx="8" fill="#edc25f"/>
<rect x="128" y="512" width="128" height="128" rx="8" fill="#eedcb3"/>
<rect x="128" y="640" width="128" height="128" rx="8" fill="#edc25f"/>
<rect x="128" y="768" width="128" height="128" rx="8" fill="#eda600"/>
<rect x="128" y="896" width="128" height="128" rx="8" fill="#edb42f"/>
<rect x="128" y="1024" width="128" height="128" rx="8" fill="#edd18e"/>
<rect x="128" y="1152" width="128" height="128" rx="8" fill="#eddfbe"/>
<rect x="256" y="0" width="128" height="128" rx="8" fill="#eddfbe"/>
<rect x="256" y="128" width="128" height="128" rx="8" fill="#edd18e"/>
<rect x="256" y="256" width="128" height="128" rx="8" fill="#eddfbe"/>
<rect x="256" y="384" width="128" height="128" rx="8" fill="#edc25f"/>
<rect x="256" y="512" width="128" height="128" rx="8" fill="#eda600"/>
<rect x="256" y="640" width="128" height="128" rx="8" fill="#edd18e"/>
<rect x="256" y="768" width="128" height="128" rx="8" fill="#eddfbe"/>
<rect x="256" y="896" width="128" height="128" rx="8" fill="#edb42f"/>
<rect x="256" y="1024" width="128" height="128" rx="8" fill="#edc25f"/>
<rect x="256" y="1152" width="128" height="128" rx="8" fill="#eedcb3"/>
<rect x="384" y="0" width="128" height="128" rx="8" fill="#edd18e"/>
<rect x="384" y="128" width="128" height="128" rx="8" fill="#edc25f"/>
<rect x="384" y="256" width="128" height="128" rx="8" fill="#edc25f"/>
<rect x="384" y="384" width="128" height="128" rx="8" fill="#edb42f"/>
<rect x="384" y="512" width="128" height="128" rx="8" fill="#eddfbe"/>
<rect x="384" y="640" width="128" height="128" rx="8" fill="#edb42f"/>
<rect x="384" y="768" width="128" height="128" rx="8" fill="#eedcb3"/>
<rect x="384" y="896" width="128" height="128" rx="8" fill="#eda600"/>
<rect x="384" y="1024" width="128" height="128" rx="8" fill="#edc25f"/>
<rect x="384" y="1152" width="128" height="128" rx="8" fill="#edd18e"/>
<rect x="512" y="0" width="128" height="128" rx="8" fill="#eda600"/>
<rect x="512" y="128" width="128" height="128" rx="8" fill="#eedcb3"/>
<rect x="512" y="256" width="128" height="128" rx="8" fill="#eda600"/>
<rect x="512" y="384" width="128" height="128" rx="8" fill="#eddfbe"/>
<rect x="512" y="512" width="128" height="128" rx="8" fill="#eda600"/>
<rect x="512" y="640" width="128" height="128" rx="8" fill="#eedcb3"/>
<rect x="512" y="768" width="128" height="128" rx="8" fill="#eddfbe"/>
<rect x="512" y="896" width="128" height="128" rx="8" fill="#edd18e"/>
<rect x="512" y="1024" width="128" height="128" rx="8" fill="#edb42f"/>
<rect x="512" y="1152" width="128" height="128" rx="8" fill="#eedcb3"/>
<rect x="640" y="0" width="128" height="128" rx="8" fill="#edd18e"/>
<rect x="640" y="128" width="128" height="128" rx="8" fill="#edc25f"/>
<rect x="640" y="256" width="128" height="128" rx="8" fill="#edd18e"/>
<rect x="640" y="384" width="128" height="128" rx="8" fill="#edb42f"/>
<rect x="640" y="512" width="128" height="128" rx="8" fill="#eedcb3"/>
<rect x="640" y="640" width="128" height="128" rx="8" fill="#edc25f"/>
<rect x="640" y="768" width="128" height="128" rx="8" fill="#edd18e"/>
<rect x="640" y="896" width="128" height="128" rx="8" fill="#eda600"/>
<rect x="640" y="1024" width="128" height="128" rx="8" fill="#edb42f"/>
<rect x="640" y="1152" width="128" height="128" rx="8" fill="#eddfbe"/>
<rect x="768" y="0" width="128" height="128" rx="8" fill="#edb42f"/>
<rect x="768" y="128" width="128" height="128" rx="8" fill="#eda600"/>
<rect x="768" y="256" width="128" height="128" rx="8" fill="#eddfbe"/>
<rect x="768" y="384" width="128" height="128" rx="8" fill="#eedcb3"/>
<rect x="768" y="512" width="128" height="128" rx="8" fill="#eddfbe"/>
<rect x="768" y="640" width="128" height="128" rx="8" fill="#edd18e"/>
<rect x="768" y="768" width="128" height="128" rx="8" fill="#eedcb3"/>
<rect x="768" y="896" width="128" height="128" rx="8" fill="#eddfbe"/>
<rect x="768" y="1024" width="128" height="128" rx="8" fill="#eda600"/>
<rect x="768" y="1152" width="128" height="128" rx="8" fill="#edd18e"/>
<rect x="896" y="0" width="128" height="128" rx="8" fill="#edc25f"/>
<rect x="896" y="128" width="128" height="128" rx="8" fill="#edb42f"/>
<rect x="896" y="256" width="128" height="128" rx="8" fill="#edb42f"/>
<rect x="896" y="384" width="128" height="128" rx="8" fill="#eda600"/>
<rect x="896" y="512" width="128" height="128" rx="8" fill="#edd18e"/>
<rect x="896" y="640" width="128" height="128" rx="8" fill="#eda600"/>
<rect x="896" y="768" width="128" height="128" rx="8" fill="#eddfbe"/>
<rect x="896" y="896" width="128" height="128" rx="8" fill="#eedcb3"/>
<rect x="896" y="1024" width="128" height="128" rx="8" fill="#edb42f"/>
<rect x="896" y="1152" width="128" height="128" rx="8" fill="#edc25f"/>
<rect x="1024" y="0" width="128" height="128" rx="8" fill="#eddfbe"/>
<rect x="1024" y="128" width="128" height="128" rx="8" fill="#edd18e"/>
<rect x="1024" y="256" width="128" height="128" rx="8" fill="#edc25f"/>
<rect x="1024" y="384" width="128" height="128" rx="8" fill="#edc25f"/>
<rect x="1024" y="512" width="128" height="128" rx="8" fill="#edb42f"/>
<rect x="1024" y="640" width="128" height="128" rx="8" fill="#edb42f"/>
<rect x="1024" y="768" width="128" height="128" rx="8" fill="#eda600"/>
<rect x="1024" y="896" width="128" height="128" rx="8" fill="#edb42f"/>
<rect x="1024" y="1024" width="128" height="128" rx="8" fill="#edb42f"/>
<rect x="1024" y="1152" width="128" height="128" rx="8" fill="#eda600"/>
<rect x="1152" y="0" width="128" height="128" rx="8" fill="#eedcb3"/>
<rect x="1152" y="128" width="128" height="128" rx="8" fill="#eddfbe"/>
<rect x="1152" y="256" width="128" height="128" rx="8" fill="#eedcb3"/>
<rect x="1152" y="384" width="128" height="128" rx="8" fill="#edd18e"/>
<rect x="1152" y="512" width="128" height="128" rx="8" fill="#eedcb3"/>
<rect x="1152" y="640" width="128" height="128" rx="8" fill="#eddfbe"/>
<rect x="1152" y="768" width="128" height="128" rx="8" fill="#edd18e"/>
<rect x="1152" y="896" width="128" height="128" rx="8" fill="#edc25f"/>
<rect x="1152" y="1024" width="128" height="128" rx="8" fill="#eda600"/>
<rect x="1152" y="1152" width="128" height="128" rx="8" fill="#eddfbe"/>
</svg>
